<svg width="82" height="22" viewBox="0 0 82 22" fill="none" xmlns="http://www.w3.org/2000/svg">
<g clip-path="url(#clip0_155:378)">
<path d="M7.35538 12.7334C7.35538 12.3777 7.49525 12.0365 7.74423 11.785C7.99321 11.5334 8.33089 11.3921 8.683 11.3921H10.6716C11.1626 11.3921 11.6335 11.1951 11.9807 10.8443C12.3278 10.4936 12.5229 10.0179 12.5229 9.52183V5.84129C12.5229 5.66507 12.5572 5.49058 12.624 5.32779C12.6908 5.165 12.7887 5.0171 12.912 4.89254C13.0354 4.76797 13.1819 4.66919 13.3431 4.60184C13.5042 4.53449 13.677 4.49989 13.8514 4.50001C14.2035 4.50001 14.5412 4.64132 14.7902 4.89286C15.0392 5.1444 15.179 5.48556 15.179 5.84129V9.89468C15.179 12.2031 13.3267 14.0747 11.0416 14.0747H8.683C8.33089 14.0747 7.99321 13.9333 7.74423 13.6818C7.49525 13.4303 7.35538 13.0891 7.35538 12.7334Z" fill="#892EA6"/>
<path d="M7.33496 16.1587C7.33496 15.9826 7.3693 15.8082 7.43602 15.6454C7.50274 15.4827 7.60053 15.3348 7.72381 15.2103C7.84709 15.0857 7.99345 14.9869 8.15453 14.9195C8.3156 14.8521 8.48824 14.8174 8.66259 14.8174H11.0347C13.7069 14.8174 15.8736 12.6285 15.8736 9.92878V5.84091C15.8736 5.48518 16.0135 5.14402 16.2625 4.89248C16.5114 4.64094 16.8491 4.49963 17.2012 4.49963C17.5532 4.49992 17.8907 4.64141 18.1394 4.893C18.3882 5.14458 18.5279 5.48567 18.5278 5.84128V9.92987C18.5283 10.9242 18.3349 11.9088 17.9586 12.8275C17.5822 13.7462 17.0303 14.581 16.3344 15.284C15.6385 15.9871 14.8122 16.5447 13.9029 16.9249C12.9935 17.3052 12.0189 17.5006 11.0347 17.5H8.66259C8.48824 17.5 8.3156 17.4653 8.15453 17.3979C7.99345 17.3305 7.84709 17.2317 7.72381 17.1071C7.60053 16.9826 7.50274 16.8347 7.43602 16.672C7.3693 16.5093 7.33496 16.3349 7.33496 16.1587Z" fill="#631A79"/>
<path d="M11.6446 9.26662C11.6446 9.62235 11.5048 9.96351 11.2558 10.2151C11.0068 10.4666 10.6691 10.6079 10.317 10.6079H8.32838C8.08528 10.6079 7.84455 10.6563 7.61995 10.7503C7.39535 10.8443 7.19127 10.982 7.01936 11.1557C6.84746 11.3294 6.7111 11.5355 6.61807 11.7625C6.52503 11.9894 6.47715 12.2326 6.47715 12.4782V16.1587C6.47715 16.5144 6.33727 16.8556 6.0883 17.1071C5.83932 17.3587 5.50163 17.5 5.14952 17.5V17.5C4.79742 17.5 4.45973 17.3587 4.21075 17.1071C3.96177 16.8556 3.8219 16.5144 3.8219 16.1587L3.8219 12.1053C3.8219 9.7969 5.67422 7.92534 7.95933 7.92534H10.317C10.6691 7.92534 11.0068 8.06666 11.2558 8.3182C11.5048 8.56973 11.6446 8.91089 11.6446 9.26662Z" fill="#892EA6"/>
<path d="M11.665 5.84128C11.665 6.19701 11.5251 6.53817 11.2761 6.78971C11.0272 7.04125 10.6895 7.18256 10.3374 7.18256H7.96522C5.293 7.18256 3.12634 9.37151 3.12634 12.0712L3.12634 16.1587C3.12634 16.5143 2.98661 16.8553 2.73787 17.1068C2.48912 17.3583 2.15171 17.4997 1.79979 17.5V17.5C1.44769 17.5 1.11 17.3587 0.861022 17.1071C0.612044 16.8556 0.472169 16.5144 0.472169 16.1587L0.472169 12.0709C0.4716 11.0766 0.665024 10.0919 1.04138 9.17321C1.41774 8.2545 1.96966 7.41975 2.66556 6.71669C3.36147 6.01362 4.18773 5.45603 5.09708 5.0758C6.00644 4.69557 6.98106 4.50016 7.96522 4.50073H10.3374C10.6893 4.50073 11.0269 4.64194 11.2759 4.89332C11.5248 5.1447 11.6648 5.48568 11.665 5.84128Z" fill="#631A79"/>
</g>
<path d="M24.3233 12.748C24.3233 11.812 24.4973 10.978 24.8453 10.246C25.2053 9.502 25.6973 8.92 26.3213 8.5C26.9453 8.068 27.6593 7.852 28.4633 7.852C29.0753 7.852 29.6393 7.996 30.1553 8.284C30.6713 8.56 31.0613 8.944 31.3253 9.436V4.36H34.7453V13.72C34.7453 14.044 34.7933 14.272 34.8893 14.404C34.9853 14.524 35.1533 14.596 35.3933 14.62V17.5C34.8053 17.62 34.3253 17.68 33.9533 17.68C32.7893 17.68 32.1173 17.242 31.9373 16.366L31.8653 16.024C31.5413 16.6 31.1033 17.02 30.5513 17.284C29.9993 17.548 29.4113 17.68 28.7873 17.68C27.9233 17.68 27.1553 17.47 26.4833 17.05C25.8113 16.63 25.2833 16.048 24.8993 15.304C24.5153 14.56 24.3233 13.708 24.3233 12.748ZM31.3433 13.828V12.136C31.1873 11.716 30.9413 11.38 30.6053 11.128C30.2813 10.864 29.9393 10.732 29.5793 10.732C29.0873 10.732 28.6733 10.936 28.3373 11.344C28.0133 11.752 27.8513 12.244 27.8513 12.82C27.8513 13.408 28.0253 13.888 28.3733 14.26C28.7213 14.62 29.1713 14.8 29.7233 14.8C30.3593 14.8 30.8993 14.476 31.3433 13.828ZM36.276 14.638C36.276 14.002 36.45 13.444 36.798 12.964C37.146 12.472 37.626 12.088 38.238 11.812C38.862 11.536 39.57 11.398 40.362 11.398C41.13 11.398 41.766 11.518 42.27 11.758V11.47C42.27 11.026 42.138 10.696 41.874 10.48C41.622 10.264 41.208 10.156 40.632 10.156C40.104 10.156 39.606 10.246 39.138 10.426C38.682 10.594 38.202 10.846 37.698 11.182L36.708 9.058C37.956 8.254 39.378 7.852 40.974 7.852C42.474 7.852 43.632 8.194 44.448 8.878C45.276 9.55 45.69 10.552 45.69 11.884V13.72C45.69 14.044 45.738 14.272 45.834 14.404C45.93 14.524 46.098 14.596 46.338 14.62V17.5C46.062 17.56 45.798 17.602 45.546 17.626C45.306 17.662 45.09 17.68 44.898 17.68C44.286 17.68 43.818 17.572 43.494 17.356C43.182 17.128 42.978 16.798 42.882 16.366L42.81 16.024C41.946 17.128 40.872 17.68 39.588 17.68C38.964 17.68 38.4 17.548 37.896 17.284C37.392 17.02 36.996 16.66 36.708 16.204C36.42 15.736 36.276 15.214 36.276 14.638ZM41.82 14.872C42.12 14.668 42.27 14.446 42.27 14.206V13.504C42.078 13.432 41.856 13.372 41.604 13.324C41.364 13.276 41.148 13.252 40.956 13.252C40.548 13.252 40.2 13.354 39.912 13.558C39.636 13.762 39.498 14.02 39.498 14.332C39.498 14.596 39.6 14.812 39.804 14.98C40.02 15.148 40.29 15.232 40.614 15.232C41.058 15.232 41.46 15.112 41.82 14.872ZM47.5014 4.36H50.9214V13.738C50.9214 14.458 51.2154 14.818 51.8034 14.818C52.1034 14.818 52.4154 14.728 52.7394 14.548L53.1714 17.068C52.7634 17.26 52.3014 17.41 51.7854 17.518C51.2814 17.626 50.8014 17.68 50.3454 17.68C49.4334 17.68 48.7314 17.446 48.2394 16.978C47.7474 16.498 47.5014 15.82 47.5014 14.944V4.36ZM69.2358 17.5H65.8158V12.172C65.8158 11.704 65.7198 11.368 65.5279 11.164C65.3478 10.948 65.1258 10.84 64.8619 10.84C64.5978 10.84 64.3098 10.966 63.9978 11.218C63.6858 11.47 63.4578 11.794 63.3138 12.19V17.5H59.8938V12.172C59.8938 11.704 59.7978 11.368 59.6058 11.164C59.4258 10.948 59.2038 10.84 58.9398 10.84C58.6758 10.84 58.3878 10.966 58.0758 11.218C57.7638 11.47 57.5358 11.794 57.3918 12.19V17.5H53.9718V8.032H57.0498V9.436C57.7338 8.38 58.8918 7.852 60.5238 7.852C61.3038 7.852 61.8918 8.02 62.2879 8.356C62.6838 8.692 62.9478 9.07 63.0798 9.49C63.4158 8.974 63.8778 8.572 64.4658 8.284C65.0538 7.996 65.7138 7.852 66.4459 7.852C67.0698 7.852 67.5678 7.966 67.9399 8.194C68.3118 8.422 68.5878 8.716 68.7679 9.076C68.9598 9.436 69.0858 9.814 69.1458 10.21C69.2058 10.594 69.2358 10.948 69.2358 11.272V17.5ZM75.5616 17.68C74.4336 17.68 73.4856 17.452 72.7176 16.996C71.9496 16.528 71.3676 15.922 70.9716 15.178C70.5756 14.434 70.3776 13.63 70.3776 12.766C70.3776 11.89 70.5756 11.08 70.9716 10.336C71.3676 9.592 71.9496 8.992 72.7176 8.536C73.4856 8.08 74.4336 7.852 75.5616 7.852C76.6896 7.852 77.6376 8.08 78.4056 8.536C79.1736 8.992 79.7556 9.592 80.1516 10.336C80.5476 11.08 80.7456 11.89 80.7456 12.766C80.7456 13.63 80.5476 14.434 80.1516 15.178C79.7556 15.922 79.1736 16.528 78.4056 16.996C77.6376 17.452 76.6896 17.68 75.5616 17.68ZM73.8876 12.766C73.8876 13.39 74.0436 13.888 74.3556 14.26C74.6796 14.62 75.0816 14.8 75.5616 14.8C76.0536 14.8 76.4556 14.62 76.7676 14.26C77.0796 13.888 77.2356 13.39 77.2356 12.766C77.2356 12.13 77.0796 11.632 76.7676 11.272C76.4556 10.912 76.0536 10.732 75.5616 10.732C75.0816 10.732 74.6796 10.912 74.3556 11.272C74.0436 11.632 73.8876 12.13 73.8876 12.766Z" fill="#8429A1"/>
<defs>
<clipPath id="clip0_155:378">
<rect x="0.472229" y="17.5" width="13" height="18.0556" transform="rotate(-90 0.472229 17.5)" fill="white"/>
</clipPath>
</defs>
</svg>
